<svg width="200" height="200" xmlns="http://www.w3.org/2000/svg" xmlns:svg="http://www.w3.org/2000/svg" preserveAspectRatio="xMidYMid meet" version="1.0">
 <g class="layer">
  <title>Layer 1</title>
  <g fill="#000000" id="svg_1" transform="matrix(0.084193 0 0 -0.0388873 -27.5429 354.984)">
   <path d="m1516.82,9058.34c-12.32,-99.16 -31.32,-146.58 -153.01,-377.24c-52.37,-99.16 -86.26,-198.32 -104.74,-305.03c-10.78,-60.36 -12.32,-89.46 -12.32,-210.18c0,-139.04 0,-140.12 19,-224.19c43.13,-188.62 125.28,-307.18 262.37,-378.32l47.24,-24.79l-29.78,-7.54c-32.86,-8.62 -83.18,-58.2 -126.3,-123.95l-27.21,-42.03l20.02,-26.94c55.45,-73.29 85.23,-97.01 127.85,-102.4c58.53,-6.46 88.31,15.09 124.25,91.62c28.75,62.51 28.75,61.44 17.97,-20.48c-3.08,-28.02 1.54,-23.71 25.67,17.24c26.7,44.19 33.89,52.81 74.96,80.84c46.72,32.33 49.29,28.02 9.24,-17.24c-45.18,-50.66 -97.55,-160.6 -125.28,-262.99c-11.3,-44.19 -22.59,-90.54 -24.64,-103.47c-3.08,-22.63 -2.05,-22.63 13.35,-14.01c17.97,10.78 28.24,5.39 11.81,-6.46c-26.7,-19.4 -71.37,-65.75 -127.33,-133.65c-34.4,-40.96 -78.04,-90.54 -98.07,-111.01l-35.94,-37.72l14.89,-11.85c15.92,-12.93 56.99,-25.87 142.74,-44.19c75.47,-16.17 105.77,-33.41 168.41,-99.16c47.24,-49.58 60.07,-68.98 102.69,-159.52c28.75,-59.28 56.99,-131.49 68.29,-172.45c44.67,-162.75 64.69,-400.95 50.32,-608.97l-3.59,-53.89l-4.11,80.84c-10.27,211.26 -51.34,408.5 -116.04,554c-42.1,94.85 -111.93,185.39 -159.17,205.87c-17.46,6.46 -16.94,5.39 10.27,-33.41c36.46,-51.74 85.23,-158.44 106.28,-232.81c35.94,-123.95 60.07,-355.68 49.8,-478.55c-2.57,-38.8 -4.62,-45.27 -6.16,-25.87c-10.78,154.13 -64.18,362.15 -121.17,472.09c-31.83,61.44 -86.26,133.65 -125.79,168.14c-32.35,28.02 -87.29,53.89 -91.91,44.19c-1.54,-3.23 0,-5.39 3.08,-5.39c10.78,0 77.02,-119.64 102.18,-186.46c32.35,-82.99 60.59,-200.48 74.45,-308.26c12.84,-99.16 15.4,-319.04 4.62,-441.91c-15.92,-187.54 -62.64,-424.66 -121.17,-615.44c-54.42,-178.92 -61.61,-208.02 -61.1,-253.29c0,-25.87 10.78,-98.08 26.7,-182.15c14.89,-76.53 26.19,-141.19 25.16,-143.35c-3.08,-6.46 -40.56,120.71 -63.15,213.41c-12.32,50.66 -20.02,99.16 -21.57,133.65c-2.05,58.2 -4.62,45.27 62.13,307.18c32.35,128.26 49.29,220.96 66.23,361.07c15.4,131.49 16.43,380.47 2.05,501.19c-36.97,310.41 -152.49,523.82 -273.15,503.34c-17.97,-2.15 -42.62,-15.09 -55.96,-29.1c-29.27,-30.18 -53.91,-97.01 -53.91,-146.58c0,-46.35 -4.62,-50.66 -29.27,-24.79c-24.64,24.79 -49.29,93.77 -58.53,160.6c-3.59,26.94 -7.7,52.81 -9.75,57.12c-5.13,11.85 -28.24,-101.32 -39.53,-191.85c-7.19,-57.12 -9.24,-112.1 -8.73,-226.34c0.51,-131.49 2.05,-163.83 14.38,-246.82c19.51,-135.8 56.99,-282.39 110.9,-432.21c83.69,-233.89 100.12,-341.67 77.53,-515.2c-5.65,-45.27 -10.78,-92.69 -10.78,-105.63c0,-11.85 21.05,-82.99 46.72,-158.44c25.67,-75.45 43.64,-137.96 40.56,-140.12c-19,-14.01 -167.38,74.37 -246.45,144.43c-54.94,49.58 -162.25,171.37 -187.4,213.41c-12.84,21.55 -13.35,23.71 -5.65,61.44c19,94.85 74.45,213.41 125.79,267.3c51.34,54.97 104.23,64.67 151.98,28.02c5.65,-4.31 -9.75,32.33 -34.4,81.92c-87.29,177.84 -137.09,337.36 -168.41,544.3c-15.92,102.4 -20.02,313.65 -8.21,417.12c18.48,164.91 58.02,280.23 131.44,382.63c69.31,95.93 79.58,131.49 54.42,188.62c-33.89,77.6 -130.41,126.1 -323.98,163.83c-92.93,17.24 -125.28,34.49 -155.06,79.76c-21.57,33.41 -42.62,107.78 -42.62,153.05c0.51,44.19 17.97,109.94 42.62,157.36c28.75,54.97 67.77,97.01 148.9,160.6c94.99,74.37 135.55,119.64 168.41,188.62c59.56,125.03 78.04,283.47 52.37,457c-29.78,204.79 -125.79,326.58 -232.07,295.32c-50.83,-15.09 -98.58,-74.37 -60.07,-74.37c20.54,0 62.13,-31.26 86.26,-64.67c31.83,-44.19 50.32,-120.71 50.32,-203.71l0,-60.36l-14.38,52.81c-15.92,61.44 -24.13,72.21 -28.24,36.65c-1.54,-14.01 -7.7,-51.74 -13.35,-84.07c-12.84,-72.21 -14.38,-212.33 -3.59,-278.08c9.24,-53.89 10.27,-52.81 -56.48,-111.01c-144.28,-125.03 -199.73,-225.26 -220.78,-396.64c-15.4,-126.1 0.51,-243.59 44.67,-337.36c47.75,-100.24 111.93,-143.35 230.53,-155.21c41.08,-3.23 82.66,-9.7 92.42,-14.01l17.46,-7.54l-22.59,-28.02c-62.64,-78.68 -125.28,-224.19 -159.17,-369.69c-28.75,-126.1 -41.08,-234.96 -44.67,-394.48c-3.59,-160.6 3.08,-270.53 25.67,-435.44c19,-141.19 21.05,-242.51 7.19,-320.12c-5.13,-29.1 -11.81,-51.74 -14.38,-51.74c-7.7,0 -69.31,158.44 -104.23,268.38c-110.9,348.14 -177.65,776.04 -185.86,1186.69c-1.54,74.37 -3.59,145.51 -5.13,159.52c-6.68,66.83 -48.78,91.62 -68.29,38.8c-9.75,-25.87 -10.78,-43.11 -10.78,-159.52c0,-323.35 42.62,-700.58 115.01,-1014.23c61.1,-267.3 121.68,-448.37 218.21,-655.32c97.55,-209.1 183.3,-341.67 304.47,-467.77c222.83,-233.89 468.26,-312.57 715.22,-228.5c252.61,85.15 490.85,344.9 660.8,718.91c197.16,435.44 317.3,1056.27 317.3,1640.45c0,136.88 -1.03,153.05 -10.27,172.45c-14.89,31.26 -42.62,29.1 -55.45,-5.39c-8.21,-21.55 -10.78,-50.66 -13.35,-143.35c-10.27,-386.94 -49.29,-704.9 -122.2,-1007.76c-58.02,-239.28 -115.52,-402.03 -210,-594.96c-81.64,-165.98 -185.86,-325.51 -194.08,-297.48c-7.19,24.79 -10.27,181.08 -5.13,250.05c3.59,49.58 14.38,104.55 38.51,199.4c36.97,145.51 53.4,259.75 53.4,367.54c0,54.97 3.08,80.84 14.89,130.42c37.48,151.97 53.4,297.48 53.4,481.79c0,130.42 -6.16,214.49 -25.16,341.67c-12.32,81.92 -12.32,85.15 -4.62,164.91c8.73,92.69 10.27,321.19 2.05,425.74c-11.3,150.89 -43.13,367.54 -69.31,473.16c-12.32,48.5 -7.7,47.42 9.75,-1.08c25.16,-67.9 53.4,-98.08 101.66,-103.47c29.27,-3.23 47.75,0 67.26,12.93c29.78,20.48 101.66,102.4 101.66,116.4c0,14.01 -46.21,81.92 -82.66,120.71c-20.02,20.48 -46.72,39.88 -64.18,44.19l-30.29,8.62l43.64,24.79c104.74,59.28 155.57,113.17 205.89,218.8c57.51,121.79 80.1,247.9 74.96,426.82c-5.13,213.41 -34.4,310.41 -172,574.48c-64.69,125.03 -85.74,183.23 -99.09,270.53l-8.73,60.36l-6.16,-32.33c-8.21,-43.11 -3.59,-157.36 8.73,-232.81c5.65,-33.41 25.16,-108.86 42.62,-167.06c60.07,-197.24 68.8,-238.2 68.8,-316.88c0,-162.75 -62.13,-283.47 -164.3,-322.27c-57.51,-21.55 -172.51,-32.33 -186.89,-17.24c-36.46,38.8 -82.15,28.02 -115.52,-26.94c-24.13,-39.88 -30.81,-39.88 -55.96,0c-34.91,56.05 -79.58,65.75 -116.04,26.94c-14.38,-15.09 -132.47,-4.31 -184.84,17.24c-93.96,37.72 -151.46,133.65 -165.33,272.69c-8.21,82.99 3.59,159.52 48.26,305.03c56.99,186.46 75.99,279.16 75.99,376.16c0,53.89 -5.13,112.1 -9.75,112.1c-2.05,0 -6.68,-22.63 -10.27,-50.66l-0.01,-0.03l-0.05,-0.04zm-164.3,-882.74c36.97,-114.25 106.28,-198.32 193.57,-236.04c20.54,-9.7 69.31,-18.32 107.82,-21.55c78.56,-5.39 86.26,-11.85 91.91,-84.07c3.59,-48.5 -7.19,-136.88 -17.97,-145.51c-20.02,-16.17 -221.8,40.96 -278.28,78.68c-5.65,3.23 -10.27,4.31 -10.27,1.08c0,-2.15 14.89,-15.09 32.86,-28.02c43.64,-30.18 137.09,-63.59 201.78,-72.21c42.62,-5.39 51.34,-9.7 49.29,-22.63c-2.57,-11.85 -10.78,-14.01 -47.24,-7.54c-59.04,8.62 -123.74,33.41 -164.81,59.28c-113.47,75.45 -196.13,220.96 -208.46,366.46c-2.57,34.49 -2.05,35.57 4.62,19.4c11.3,-30.18 13.86,-22.63 6.68,16.17c-3.59,18.32 -8.21,53.89 -9.75,77.6l-2.57,43.11l8.21,-34.49c4.11,-19.4 9.24,-35.57 11.3,-35.57c1.54,0 2.05,37.72 1.54,84.07l-1.54,82.99l8.73,-48.5c4.62,-26.94 14.89,-67.9 22.59,-92.69l0,-0.01l-0.01,-0.01zm1138.29,48.5c-2.05,-75.45 -1.54,-85.15 4.62,-68.98c3.59,11.85 6.68,26.94 6.68,34.49c0,7.54 2.57,14.01 5.13,14.01c5.65,0 3.08,-31.26 -8.73,-101.32c-8.73,-54.97 -8.21,-60.36 4.11,-28.02l10.27,26.94l-3.59,-37.72c-8.73,-97.01 -45.18,-195.09 -100.63,-270.53c-31.32,-42.03 -43.64,-51.74 -36.97,-30.18c2.05,7.54 0,9.7 -6.16,5.39c-57.51,-36.65 -148.9,-67.9 -228.48,-77.6l-59.56,-7.54l-6.16,35.57c-9.24,56.05 -7.19,133.65 4.11,163.83c9.75,25.87 13.86,26.94 83.69,34.49c81.64,7.54 128.36,24.79 178.16,66.83c68.29,54.97 123.74,162.75 142.74,273.77c5.13,29.1 9.75,53.89 11.3,53.89c1.03,0 0.51,-39.88 -0.51,-87.31l-0.01,0.01l-0.01,-0.02zm-132.47,-483.94c-14.38,-20.48 -105.25,-74.37 -143.76,-85.15c-55.96,-17.24 -124.25,-19.4 -126.82,-5.39c-1.03,7.54 16.94,14.01 53.4,19.4c76.5,9.7 181.76,47.42 201.27,71.14c4.62,5.39 11.81,9.7 15.92,10.78c6.68,0 6.68,-1.08 0,-10.78l0,0l-0.01,0zm-579.16,-937.71c80.61,-24.79 136.57,-84.07 196.65,-210.18c50.83,-105.63 74.96,-189.7 94.47,-322.27c10.27,-70.06 21.05,-259.75 11.3,-200.48c-26.19,163.83 -106.28,372.93 -182.78,479.63c-67.77,94.85 -163.79,175.69 -251.07,211.26c-34.91,14.01 -31.32,24.79 13.35,40.96c37.48,12.93 77.53,12.93 118.09,1.08l0,-0.01l-0.01,0.01zm119.12,-1900.2c15.92,-63.59 18.48,-84.07 18.48,-148.74c0,-64.67 2.57,-85.15 17.97,-147.66c17.46,-68.98 18.48,-77.6 16.94,-162.75l-1.54,-89.46l-38.51,-32.33c-79.58,-66.83 -270.58,-151.97 -284.96,-127.18c-3.59,5.39 -16.43,58.2 -28.75,116.4c-30.81,143.35 -30.29,183.23 2.57,343.82l25.16,119.64l23.62,7.54c57.51,17.24 133.49,84.07 198.19,174.61c13.86,19.4 27.21,31.26 29.27,26.94c2.05,-4.31 11.81,-40.96 21.57,-80.84l0,0.01l-0.01,0z" id="svg_3"/>
   <path d="m683.1,6777.71c-23.05,-16.22 -48.66,-41.71 -57.62,-53.3c-14.73,-18.54 -14.73,-23.17 -3.2,-34.76c7.04,-6.95 44.82,-30.12 83.23,-50.98c39.05,-20.85 110.76,-74.15 160.06,-118.18c138.29,-125.13 320.76,-143.67 200.4,-20.85c-22.41,20.85 -64.66,76.47 -94.75,118.18c-110.76,162.21 -212.56,217.83 -288.11,159.89l-0.01,0z" id="svg_4"/>
  </g>
 </g>
</svg>